<?xml version="1.0" encoding="utf-8"?>
<!-- Generator: Adobe Illustrator 16.0.4, SVG Export Plug-In . SVG Version: 6.00 Build 0)  -->
<!DOCTYPE svg PUBLIC "-//W3C//DTD SVG 1.1//EN" "http://www.w3.org/Graphics/SVG/1.1/DTD/svg11.dtd">
<svg version="1.1" id="Layer_2" xmlns="http://www.w3.org/2000/svg" xmlns:xlink="http://www.w3.org/1999/xlink" x="0px" y="0px"
	 width="52.718px" height="51.498px" viewBox="0 0 52.718 51.498" enable-background="new 0 0 52.718 51.498" xml:space="preserve">
<g>
	<path fill="none" stroke="#F7F6EB" stroke-miterlimit="10" d="M48.542,4.039c0,0-1.332,1.167-1.666,2.5s-5.5,24.333-6.667,25
		s-9.167,0.167-11.5,0s-17-1.5-17-1.5s-9.167-1.333-9.5-2.333S0.542,13.373,0.542,13.373l28-6.333c0,0,1-3.333,1.5-3"/>
	<path fill="none" stroke="#F7F6EB" stroke-miterlimit="10" d="M0.542,13.373c0,0,9.166,2,11,1.833s35.074-7.56,35.074-7.56"/>
	<path fill="none" stroke="#F7F6EB" stroke-miterlimit="10" d="M3.455,13.98c0,0,0.515,13.167,1.051,14.696"/>
	<path fill="none" stroke="#F7F6EB" stroke-miterlimit="10" d="M6.244,14.518c0,0,0.274,13.314,0.953,14.751"/>
	<path fill="none" stroke="#F7F6EB" stroke-miterlimit="10" d="M8.399,14.89c0,0-0.158,13.292,0.659,14.721"/>
	<path fill="none" stroke="#F7F6EB" stroke-miterlimit="10" d="M10.709,15.216c0,0,0.167,13.656,1,14.823"/>
	<path fill="none" stroke="#F7F6EB" stroke-miterlimit="10" d="M14.542,14.89c0,0-0.79,14.501-1.812,15.242"/>
	<path fill="none" stroke="#F7F6EB" stroke-miterlimit="10" d="M16.876,14.518c0,0-1.166,14.207-1.5,15.614"/>
	<path fill="none" stroke="#F7F6EB" stroke-miterlimit="10" d="M19.709,13.98c0,0-1.333,15.159-2.833,16.526"/>
	<path fill="none" stroke="#F7F6EB" stroke-miterlimit="10" d="M29.458,11.431c0,0-2.847,17.905-3.298,19.673"/>
	<path fill="none" stroke="#F7F6EB" stroke-miterlimit="10" d="M31.952,10.884c0,0-3.544,19.346-4.144,20.584"/>
	<path fill="none" stroke="#F7F6EB" stroke-miterlimit="10" d="M40.373,9.029c0,0-4.448,21.684-5.223,22.847"/>
	<path fill="none" stroke="#F7F6EB" stroke-miterlimit="10" d="M42.862,8.479c0,0-3.635,21.234-4.978,23.397"/>
	<path fill="#F7F6EB" stroke="#F7F6EB" stroke-miterlimit="10" d="M29.646,3.122l1.366,2l3.031-1.75h14l1.375,1.75
		c0,0,3.625-2.375,2.625-3.875s-2.625,0-2.625,0l-14.465,0.25c0,0-1.41-1.333-2.035-0.917S29.646,3.122,29.646,3.122z"/>
	<path fill="none" stroke="#F7F6EB" stroke-miterlimit="10" d="M1.183,19.536c0,0,8.123,1.689,10.526,1.641s32.475-3.23,32.475-3.23
		"/>
	<path fill="none" stroke="#F7F6EB" stroke-miterlimit="10" d="M1.183,24.497c0,0,8.679,1.873,10.526,2s30.281,0,30.281,0"/>
	<path fill="none" stroke="#F7F6EB" stroke-miterlimit="10" d="M26.918,7.646l-0.758,4.505c0,0-1.59,19.041-2.581,18.953"/>
	<path fill="none" stroke="#F7F6EB" stroke-miterlimit="10" d="M24.542,7.944l-0.963,4.768c0,0-2.004,15.284-2.854,18.139"/>
	<line fill="none" stroke="#F7F6EB" stroke-miterlimit="10" x1="21.933" y1="8.534" x2="21.14" y2="13.239"/>
	<line fill="none" stroke="#F7F6EB" stroke-miterlimit="10" x1="19.743" y1="9.029" x2="18.997" y2="13.699"/>
	<line fill="none" stroke="#F7F6EB" stroke-miterlimit="10" x1="17.312" y1="9.579" x2="16.605" y2="13.98"/>
	<line fill="none" stroke="#F7F6EB" stroke-miterlimit="10" x1="15.209" y1="10.055" x2="14.846" y2="14.574"/>
	<line fill="none" stroke="#F7F6EB" stroke-miterlimit="10" x1="12.967" y1="10.562" x2="12.73" y2="14.89"/>
	<line fill="none" stroke="#F7F6EB" stroke-miterlimit="10" x1="10.709" y1="11.073" x2="9.98" y2="15.216"/>
	<line fill="none" stroke="#F7F6EB" stroke-miterlimit="10" x1="8.043" y1="14.89" x2="8.387" y2="11.598"/>
	<path fill="none" stroke="#F7F6EB" stroke-miterlimit="10" d="M1.183,19.185c0,0,24.673-2.5,25.423-2.312"/>
	<path fill="none" stroke="#F7F6EB" stroke-miterlimit="10" d="M1.741,24.497c0,0,22.452,0.212,23.989,0.312"/>
	<path fill="none" stroke="#F7F6EB" stroke-miterlimit="10" d="M25.248,28.676c0,0,3.045-22.185,5.42-24.057"/>
	<path fill="none" stroke="#F7F6EB" stroke-miterlimit="10" d="M47.48,2.185c0,0-3.48,1.537-5.49,6.487"/>
	<path fill="none" stroke="#F7F6EB" stroke-miterlimit="10" d="M15.784,30.408c0,0,1.884,1.277,2.509,1.902s2.062,4.25,1.812,5.625
		s-2.896,1.625-3.979,1.625"/>
	<path fill="none" stroke="#F7F6EB" stroke-miterlimit="10" d="M18.546,30.656c0,0,10.935,2.404,11.747,4.029
		s2.562,6.375,0.375,6.812s-3.75,0.375-3.75,0.375"/>
	<path fill="none" stroke="#F7F6EB" stroke-miterlimit="10" d="M26.605,31.367c0,0,3.393,3.817,2.853,5.692
		s-1.165,1.938-2.853,2.125S12.25,40.81,10.709,40.997s-8.291,0.256-6.729,0.878s7.5,2.622,8.75,2.622s21.062-1.875,23.562-2.062
		s2.625,0.562,4.375,0.062s5,0,3.812-2.938s-0.98-3.777-2.49-4.576s-3.385-2.174-4.822-2.361s-7.287-1.154-7.287-1.154
		c1.172-1.404,5.072-21.244,5.072-21.244"/>
	<path fill="none" stroke="#F7F6EB" stroke-miterlimit="10" d="M5.168,47.747c0,0,0.125-2.167,0.146-3.438s1.562-0.938,1.562-0.938
		s1.125-0.021,1.188,0.438s0,4.042,0,4.042"/>
	<path fill="none" stroke="#F7F6EB" stroke-miterlimit="10" d="M11.46,49.559c0,0,0.229-1,0.583-3.271s2.167-1.792,2.167-1.792
		s1.561,0.02,1.353,1.479S14.5,50.392,14.5,50.392"/>
	<path fill="#F7F6EB" stroke="#F7F6EB" stroke-miterlimit="10" d="M37.313,46.142c0,0-0.958-2.208-0.812-2.458s0.75-0.5,1.125-0.25
		s1.457,2.812,1.604,4.042s1.042,0.667,1.354,0.396s0.479-3.375,0.479-3.375s0.297-2.056-0.289-2.028s-3.629-0.035-3.607,0.694"/>
	<path fill="#F7F6EB" stroke="#F7F6EB" stroke-miterlimit="10" d="M23.438,39.768c0,0-1.229,0.021-0.729,1.146
		s0.604,1.555,0.604,1.555s0.729-0.722,1.104-0.722c0.188,0.542,0.5,1.5,0.5,1.5l2.208-0.104c0,0,0.249-3.167-0.167-3.375
		S23.438,39.768,23.438,39.768z"/>
	<path fill="#F7F6EB" d="M5.48,45.591c0,0,0.268-0.75,1.149-0.719s1.101,0.719,1.101,0.719l-0.312,2.906
		c0,0-0.062,0.688-1.031,0.625s-0.875-0.469-0.906-0.781S5.48,45.591,5.48,45.591z"/>
	<path fill="#F7F6EB" d="M12.074,47.851c0,0,0.438-1.226,1.656-0.853s0.75,2.311,0.75,2.311s-0.25,2.625-1.781,2.125
		S11.754,48.363,12.074,47.851z"/>
	<path fill="#F7F6EB" d="M23.262,43.81c0,0,0.297,1.406,1.633,1.312s1.873-0.459,2.085-1.853"/>
	<path fill="#F7F6EB" d="M37.98,44.903c0,0-1.312,1.844-0.406,3.156s2.125,1.469,3.188,0c-1.375-0.969-1.6-1.656-1.753-2.156
		S37.98,44.903,37.98,44.903z"/>
	<path fill="none" stroke="#F7F6EB" stroke-miterlimit="10" d="M28.992,8.534l8.893,1.045c0,0-4.427,20.134-5.468,22.297"/>
	<line fill="none" stroke="#F7F6EB" stroke-miterlimit="10" x1="30.668" y1="8.731" x2="29.881" y2="11.338"/>
	<line fill="none" stroke="#F7F6EB" stroke-miterlimit="10" x1="32.26" y1="8.918" x2="31.383" y2="11.009"/>
	<line fill="none" stroke="#F7F6EB" stroke-miterlimit="10" x1="33.857" y1="9.106" x2="33.438" y2="10.558"/>
	<path fill="none" stroke="#F7F6EB" stroke-miterlimit="10" d="M2.209,27.706c0,0,22.146,1.894,22.928,1.905
		s15.236,1.857,15.236,1.857"/>
</g>
</svg>
