<?xml version="1.0" encoding="utf-8"?>
<!-- Generator: Adobe Illustrator 16.0.4, SVG Export Plug-In . SVG Version: 6.00 Build 0)  -->
<!DOCTYPE svg PUBLIC "-//W3C//DTD SVG 1.1//EN" "http://www.w3.org/Graphics/SVG/1.1/DTD/svg11.dtd">
<svg version="1.1" id="Layer_4" xmlns="http://www.w3.org/2000/svg" xmlns:xlink="http://www.w3.org/1999/xlink" x="0px" y="0px"
	 width="31.724px" height="27.95px" viewBox="0 0 31.724 27.95" enable-background="new 0 0 31.724 27.95" xml:space="preserve">
<g display="none">
	<g display="inline">
		<g>
			<path fill="#F9F7DC" d="M-50.696,2.404c0.011-0.017,0.052,0.272,0.427,0.465c0.172,0.099,0.439,0.161,0.684,0.061
				c0.246-0.105,0.37-0.416,0.36-0.752c-0.089-1.367-1.12-3.09-2.248-4.522c-0.303-0.346-0.593-0.702-0.954-0.961
				c-0.173-0.135-0.331-0.292-0.51-0.405c-0.184-0.102-0.366-0.202-0.545-0.301c-0.171-0.116-0.361-0.17-0.545-0.222
				c-0.184-0.049-0.356-0.127-0.533-0.154c-0.359-0.011-0.688-0.099-0.995-0.021c-0.152,0.019-0.297,0.037-0.436,0.054
				c-0.135,0.039-0.261,0.09-0.38,0.128c-0.24,0.07-0.442,0.151-0.597,0.255c-0.319,0.177-0.5,0.274-0.495,0.286
				c0,0-0.087,0.059-0.251,0.17c-0.166,0.108-0.416,0.26-0.686,0.529c-0.568,0.487-1.31,1.341-1.854,2.57
				c-0.127,0.301-0.233,0.616-0.363,0.943c-0.08,0.352-0.21,0.812-0.253,1.112c-0.092,0.677,0.068,1.485,0.348,2.286
				c0.568,1.616,1.58,3.24,2.654,4.791c2.186,3.1,4.757,5.938,6.721,8.017c1.973,2.075,3.365,3.386,3.365,3.386
				s-1.451-1.244-3.521-3.229c-2.064-1.99-4.77-4.709-7.136-7.753c-1.166-1.532-2.281-3.13-2.99-4.869
				c-0.344-0.868-0.601-1.789-0.522-2.753c0.059-0.513,0.146-0.825,0.216-1.229c0.127-0.401,0.242-0.8,0.378-1.164
				c0.556-1.428,1.368-2.469,2.029-3.097c0.312-0.335,0.613-0.546,0.816-0.692c0.201-0.147,0.309-0.226,0.309-0.226
				s0.051-0.042,0.17-0.09c0.116-0.051,0.286-0.126,0.502-0.222c0.209-0.108,0.484-0.193,0.812-0.26
				c0.162-0.036,0.332-0.083,0.514-0.114c0.187-0.007,0.384-0.015,0.589-0.023c0.41-0.051,0.846,0.082,1.301,0.155
				c0.223,0.058,0.436,0.168,0.66,0.254c0.224,0.089,0.449,0.183,0.643,0.335c0.201,0.138,0.405,0.278,0.612,0.419
				c0.195,0.152,0.358,0.342,0.54,0.514c0.378,0.334,0.658,0.748,0.949,1.15c0.316,0.386,0.512,0.84,0.75,1.258
				c0.245,0.417,0.427,0.857,0.602,1.263c0.333,0.854,0.602,1.683,0.553,2.444c-0.019,0.37-0.209,0.761-0.534,0.862
				c-0.314,0.093-0.588-0.012-0.762-0.13C-50.673,2.682-50.683,2.388-50.696,2.404z"/>
		</g>
	</g>
</g>
<g display="none">
	<g display="inline">
		<g>
			<path fill="#F9F7DC" d="M-49.535,2.979c0,0-0.225-0.019-0.626-0.045c-0.178-0.022-0.515-0.07-0.597-0.41
				c-0.064-0.311,0.064-0.631,0.202-0.949c0.628-1.254,1.75-2.707,3.046-4.054c0.644-0.677,1.405-1.257,2.191-1.722
				c0.807-0.42,1.666-0.739,2.473-0.714c0.801-0.036,1.461,0.218,1.885,0.416c0.228,0.083,0.357,0.215,0.469,0.275
				c0.104,0.07,0.16,0.107,0.16,0.107s0.117,0.073,0.293,0.245c0.154,0.186,0.44,0.426,0.685,0.797
				c0.548,0.722,1.07,1.831,1.392,3.276c0.079,0.35,0.123,0.691,0.189,1.058c0.061,0.448,0.054,0.88-0.009,1.313
				c-0.133,0.86-0.453,1.678-0.839,2.474c-0.782,1.59-1.866,3.092-3.012,4.527c-2.303,2.864-4.903,5.437-6.885,7.321
				c-1.99,1.879-3.38,3.058-3.38,3.058s1.332-1.245,3.224-3.215c1.884-1.973,4.351-4.666,6.478-7.595
				c1.057-1.461,2.042-2.988,2.695-4.503c0.324-0.754,0.568-1.508,0.639-2.203c0.034-0.345,0.015-0.677-0.034-0.958
				c-0.083-0.355-0.148-0.718-0.237-1.03c-0.334-1.208-0.849-2.183-1.302-2.702c-0.207-0.288-0.428-0.439-0.547-0.58
				c-0.134-0.12-0.221-0.156-0.218-0.161c-0.008,0.038-0.525-0.633-1.68-0.724c-0.569-0.086-1.277,0.097-2.009,0.387
				c-0.719,0.338-1.475,0.796-2.147,1.379c-1.347,1.147-2.618,2.498-3.326,3.631c-0.161,0.286-0.298,0.575-0.27,0.819
				c0.023,0.255,0.299,0.339,0.479,0.377C-49.762,2.938-49.535,2.979-49.535,2.979z"/>
		</g>
	</g>
</g>
<path fill="none" stroke="#F9F7DC" stroke-miterlimit="10" d="M16.057,6.031c0,0-3.75-7-9.5-5.25s-7.75,6.75-4.5,13.25
	s14,13.5,14,13.5"/>
<path fill="none" stroke="#F9F7DC" stroke-miterlimit="10" d="M15.667,6.031c0,0,3.75-7,9.5-5.25s7.75,6.75,4.5,13.25
	s-14,13.5-14,13.5"/>
</svg>
