<?xml version="1.0" encoding="utf-8"?>
<!-- Generator: Adobe Illustrator 16.0.4, SVG Export Plug-In . SVG Version: 6.00 Build 0)  -->
<!DOCTYPE svg PUBLIC "-//W3C//DTD SVG 1.1//EN" "http://www.w3.org/Graphics/SVG/1.1/DTD/svg11.dtd">
<svg version="1.1" id="infographic" xmlns="http://www.w3.org/2000/svg" xmlns:xlink="http://www.w3.org/1999/xlink" x="0px"
	 y="0px" width="71.154px" height="69.319px" viewBox="0 0 71.154 69.319" enable-background="new 0 0 71.154 69.319"
	 xml:space="preserve">
<g id="vlag" opacity="0.7">
	<path fill="#FAFAFA" d="M44.6,21.56c0.677-1.896,1.315-3.746,1.907-5.498c-1.508-1.659-2.928-3.124-4.104-4.179
		c-0.77,1.861-1.613,3.935-2.51,6.183C41.545,19.086,43.1,20.255,44.6,21.56z"/>
	<path fill="#FAFAFA" d="M39.893,18.065c-1.905-1.176-3.944-2.151-6.181-2.907c-0.872,1.938-1.828,4.078-2.875,6.444
		c-0.006,0.012-0.011,0.024-0.017,0.036c2.299,0.607,4.602,1.384,6.743,2.376C38.367,21.926,39.147,19.938,39.893,18.065z"/>
	<path fill="#FAFAFA" d="M27.915,27.684c-1.196,2.307-2.391,4.406-3.544,6.296c2.442,0.387,4.824,1.004,6.919,1.954
		c1.199-1.793,2.405-3.776,3.532-5.912C32.563,28.936,30.216,28.188,27.915,27.684z"/>
	<path fill="#FAFAFA" d="M41.131,34.326c-0.4-0.38-0.812-0.739-1.23-1.084c-1.142,2.326-2.337,4.432-3.479,6.271
		c1.395,1.278,2.846,2.748,4.363,4.313c1.033-1.787,2.14-3.977,3.271-6.662C43.128,36.246,42.155,35.299,41.131,34.326z"/>
	<path fill="#FAFAFA" d="M52.533,42.189c-0.288,0.905-0.577,1.774-0.866,2.611c1.699,1.646,3.332,3.118,5.007,4.396
		c0.313-1.197,0.615-2.438,0.898-3.719c0.243-1.103,0.515-2.169,0.804-3.202c-1.579-1.14-3.097-2.409-4.604-3.798
		C53.362,39.653,52.948,40.89,52.533,42.189z"/>
	<path fill="#FAFAFA" d="M48.176,41.315c-1.153,2.767-2.199,5.028-3.14,6.878c1.248,1.255,2.54,2.513,3.881,3.73
		c0.881-2.037,1.813-4.403,2.75-7.123C50.545,43.713,49.391,42.548,48.176,41.315z"/>
	<path fill="#FAFAFA" d="M44.562,28.894c0.637,0.699,1.26,1.382,1.872,2.051c0.728-1.987,1.414-3.86,2.057-5.607
		c-1.274-1.358-2.562-2.621-3.891-3.777c-0.646,1.807-1.326,3.651-2.028,5.483C43.29,27.616,43.958,28.23,44.562,28.894z"/>
	<path fill="#FAFAFA" d="M42.571,27.043c-1.484-1.185-3.188-2.186-5.008-3.028c-0.002,0.006-0.005,0.012-0.007,0.018
		c-0.809,2.102-1.741,4.104-2.734,5.989c1.771,0.85,3.484,1.909,5.078,3.221c0.78-1.589,1.536-3.281,2.231-5.063
		C42.278,27.801,42.426,27.422,42.571,27.043z"/>
	<path fill="#FAFAFA" d="M69.304,35.541c0.6-1.127,1.219-2.29,1.851-3.502c-2.745-0.613-5.192-1.634-7.388-2.919
		c-0.557,1.006-1.166,2.181-1.791,3.511C64.505,34.24,67.117,35.283,69.304,35.541z"/>
	<path fill="#FAFAFA" d="M51.282,28.465c0.379,0.444,0.76,0.867,1.141,1.283c0.625-2.053,1.043-3.716,1.354-5.135
		c-1.088-1.347-2.27-2.779-3.473-4.202c-0.557,1.507-1.162,3.152-1.814,4.926C49.423,26.33,50.35,27.372,51.282,28.465z"/>
	<path fill="#FAFAFA" d="M50.536,35.312c-1.336-1.371-2.693-2.83-4.103-4.368c-0.284,0.777-0.574,1.569-0.871,2.382
		c-0.504,1.38-1.008,2.657-1.507,3.839c1.471,1.456,2.829,2.842,4.12,4.15c0.302-0.723,0.611-1.479,0.927-2.271
		C49.637,37.703,50.112,36.465,50.536,35.312z"/>
	<path fill="#FAFAFA" d="M52.423,29.748c-0.485,1.596-1.098,3.427-1.887,5.564c1.086,1.113,2.158,2.171,3.236,3.165
		c0.693-1.984,1.376-3.792,2.03-5.422C54.682,32.07,53.549,30.971,52.423,29.748z"/>
	<path fill="#FAFAFA" d="M48.917,51.924c-0.965,2.23-1.87,4.065-2.655,5.529c1.831,1.786,3.762,3.62,5.799,5.417
		c0.696-1.661,1.551-3.839,2.433-6.428C52.542,55.071,50.688,53.532,48.917,51.924z"/>
	<path fill="#FAFAFA" d="M34.555,37.901c-0.967-0.776-2.069-1.426-3.265-1.968c-1.735,2.598-3.45,4.793-4.88,6.49
		c2.131,0.724,4.208,1.644,6.111,2.751c1.064-1.393,2.438-3.31,3.899-5.661C35.788,38.934,35.165,38.392,34.555,37.901z"/>
	<path fill="#FAFAFA" d="M40.784,43.827c-1.305,2.258-2.489,3.867-3.457,4.992c1.49,1.325,3.063,2.849,4.727,4.486
		c0.838-1.197,1.831-2.847,2.982-5.112C43.561,46.709,42.146,45.231,40.784,43.827z"/>
	<path fill="#FAFAFA" d="M58.376,42.275c1.827,1.318,3.737,2.461,5.806,3.413c0.821-1.862,1.742-3.724,2.745-5.654
		c-1.778-0.722-4.08-1.844-6.617-3.526C59.621,38.27,58.959,40.198,58.376,42.275z"/>
	<path fill="#FAFAFA" d="M55.803,33.056c1.543,1.354,3.062,2.495,4.507,3.452c0.549-1.404,1.112-2.7,1.666-3.877
		c-1.566-0.996-3.097-2.204-4.472-3.586C56.969,30.239,56.397,31.572,55.803,33.056z"/>
	<path fill="#FAFAFA" d="M54.493,56.442c1.866,1.312,3.819,2.473,5.871,3.391c0.263-2.707,0.738-5.168,1.394-7.499
		c-1.804-0.847-3.464-1.901-5.084-3.138C55.979,51.853,55.228,54.289,54.493,56.442z"/>
	<path fill="#FAFAFA" d="M50.305,20.411c0.483-1.311,0.929-2.517,1.335-3.612c-1.352-2.062-2.494-4.047-3.481-5.751
		c-0.49,1.521-1.044,3.213-1.651,5.014C47.74,17.421,49.035,18.909,50.305,20.411z"/>
	<path fill="#FAFAFA" d="M40.987,10.736c0.414,0.288,0.891,0.677,1.415,1.146c0.862-2.089,1.63-3.91,2.27-5.408
		c-1.689-1.495-3.626-2.513-5.48-3.204c-0.67,1.408-1.54,3.259-2.619,5.604C38.541,9.518,40.163,10.163,40.987,10.736z"/>
	<path fill="#FAFAFA" d="M55.714,27.035c0.555,0.702,1.156,1.374,1.79,2.01c0.575-1.278,1.106-2.393,1.584-3.344
		c-1.706-1.519-3.216-3.177-4.559-4.874c-0.218,1.111-0.429,2.318-0.752,3.786C54.466,25.464,55.118,26.28,55.714,27.035z"/>
	<path fill="#FAFAFA" d="M36.572,8.874c-2.155-0.706-4.727-1.412-7.121-2.022c-0.94,1.907-2.116,4.2-3.421,6.692
		c2.825,0.283,5.361,0.829,7.682,1.614C34.794,12.754,35.745,10.668,36.572,8.874z"/>
	<path fill="#FAFAFA" d="M30.82,21.639c-2.867-0.758-5.725-1.252-8.253-1.575c-1.196,2.229-2.422,4.488-3.62,6.677
		c2.644,0.01,5.759,0.239,8.968,0.943C28.892,25.804,29.867,23.791,30.82,21.639z"/>
	<path fill="#FAFAFA" d="M15.257,33.425c-1.864,3.347-3.447,6.135-4.436,7.807c2.432-0.711,5.482-0.825,8.715-0.414
		c0.074,0.01,0.15,0.024,0.226,0.035c1.36-1.84,2.939-4.138,4.609-6.873C21.279,33.49,18.09,33.372,15.257,33.425z"/>
	<g id="gekleurd">
		<path fill="#FAFAFA" d="M34.822,30.021c-1.127,2.136-2.333,4.119-3.532,5.912c1.195,0.542,2.298,1.191,3.265,1.968
			c0.61,0.49,1.233,1.032,1.866,1.612c1.143-1.84,2.338-3.945,3.479-6.271C38.307,31.931,36.593,30.871,34.822,30.021z"/>
		<path fill="#FAFAFA" d="M37.557,24.032c0.002-0.006,0.005-0.012,0.007-0.018c-2.142-0.992-4.444-1.769-6.743-2.376
			c-0.953,2.152-1.929,4.165-2.905,6.045c2.301,0.504,4.648,1.252,6.907,2.338C35.815,28.137,36.748,26.134,37.557,24.032z"/>
		<path fill="#FAFAFA" d="M42.402,11.883c-0.524-0.47-1.001-0.858-1.415-1.146c-0.824-0.573-2.446-1.219-4.415-1.862
			c-0.827,1.794-1.778,3.88-2.86,6.284c2.236,0.756,4.275,1.731,6.181,2.907C40.789,15.817,41.633,13.744,42.402,11.883z"/>
		<path fill="#FAFAFA" d="M53.772,38.478c1.507,1.389,3.024,2.658,4.604,3.798c0.583-2.077,1.245-4.006,1.934-5.768
			c-1.444-0.957-2.964-2.098-4.507-3.452C55.148,34.686,54.466,36.493,53.772,38.478z"/>
		<path fill="#FAFAFA" d="M44.056,37.165c-1.132,2.686-2.238,4.875-3.271,6.662c1.361,1.404,2.776,2.882,4.252,4.366
			c0.94-1.85,1.986-4.111,3.14-6.878C46.885,40.007,45.526,38.621,44.056,37.165z"/>
		<path fill="#FAFAFA" d="M48.917,51.924c1.771,1.608,3.625,3.147,5.576,4.519c0.734-2.153,1.485-4.59,2.181-7.246
			c-1.675-1.277-3.308-2.749-5.007-4.396C50.73,47.521,49.798,49.887,48.917,51.924z"/>
		<path fill="#FAFAFA" d="M48.49,25.337c0.652-1.773,1.258-3.419,1.814-4.926c-1.27-1.502-2.564-2.99-3.798-4.35
			c-0.592,1.752-1.23,3.603-1.907,5.498C45.928,22.716,47.216,23.979,48.49,25.337z"/>
		<path fill="#FAFAFA" d="M44.6,21.56c-1.5-1.305-3.055-2.474-4.707-3.494c-0.745,1.872-1.525,3.86-2.329,5.949
			c1.82,0.843,3.523,1.844,5.008,3.028C43.273,25.211,43.953,23.366,44.6,21.56z"/>
		<path fill="#FAFAFA" d="M50.536,35.312c0.789-2.138,1.401-3.969,1.887-5.564c-0.381-0.416-0.762-0.839-1.141-1.283
			c-0.933-1.093-1.859-2.135-2.792-3.128c-0.643,1.747-1.329,3.62-2.057,5.607C47.843,32.482,49.2,33.941,50.536,35.312z"/>
		<path fill="#FAFAFA" d="M46.434,30.944c-0.612-0.669-1.235-1.352-1.872-2.051c-0.604-0.663-1.271-1.277-1.99-1.851
			c-0.146,0.379-0.293,0.758-0.439,1.136c-0.695,1.782-1.451,3.475-2.231,5.063c0.418,0.345,0.83,0.704,1.23,1.084
			c1.024,0.973,1.997,1.92,2.925,2.839c0.499-1.182,1.003-2.459,1.507-3.839C45.859,32.514,46.149,31.722,46.434,30.944z"/>
		<path fill="#FAFAFA" d="M55.803,33.056c0.595-1.483,1.166-2.816,1.701-4.011c-0.634-0.636-1.235-1.308-1.79-2.01
			c-0.596-0.755-1.248-1.571-1.937-2.422c-0.312,1.419-0.729,3.082-1.354,5.135C53.549,30.971,54.682,32.07,55.803,33.056z"/>
		<path fill="#FAFAFA" d="M50.536,35.312c-0.424,1.152-0.899,2.391-1.434,3.731c-0.315,0.793-0.625,1.549-0.927,2.271
			c1.215,1.232,2.369,2.397,3.491,3.485c0.289-0.837,0.578-1.706,0.866-2.611c0.415-1.3,0.829-2.536,1.239-3.712
			C52.694,37.483,51.622,36.426,50.536,35.312z"/>
		<path fill="#FAFAFA" d="M61.976,32.631c0.625-1.33,1.234-2.505,1.791-3.511c-1.708-0.999-3.262-2.159-4.679-3.419
			c-0.478,0.951-1.009,2.065-1.584,3.344C58.879,30.427,60.409,31.635,61.976,32.631z"/>
		<path fill="#FAFAFA" d="M24.371,33.979c-1.67,2.735-3.249,5.033-4.609,6.873c2.185,0.293,4.443,0.824,6.648,1.571
			c1.43-1.697,3.145-3.893,4.88-6.49C29.195,34.983,26.813,34.366,24.371,33.979z"/>
		<path fill="#FAFAFA" d="M45.036,48.193c-1.151,2.266-2.145,3.915-2.982,5.112c1.342,1.322,2.743,2.72,4.208,4.147
			c0.785-1.464,1.69-3.299,2.655-5.529C47.576,50.706,46.284,49.448,45.036,48.193z"/>
		<path fill="#FAFAFA" d="M36.421,39.514c-1.461,2.352-2.835,4.269-3.899,5.661c0.009,0.006,0.021,0.012,0.031,0.018
			c1.492,0.87,3.08,2.121,4.774,3.627c0.968-1.125,2.152-2.734,3.457-4.992C39.267,42.262,37.815,40.792,36.421,39.514z"/>
		<path fill="#FAFAFA" d="M61.976,32.631c-0.554,1.177-1.117,2.473-1.666,3.877c2.537,1.683,4.839,2.805,6.617,3.526
			c0.751-1.447,1.547-2.935,2.377-4.493C67.117,35.283,64.505,34.24,61.976,32.631z"/>
		<path fill="#FAFAFA" d="M57.572,45.478c-0.283,1.281-0.585,2.521-0.898,3.719c1.62,1.236,3.28,2.291,5.084,3.138
			c0.646-2.299,1.467-4.476,2.424-6.646c-2.068-0.952-3.979-2.095-5.806-3.413C58.087,43.309,57.815,44.375,57.572,45.478z"/>
		<path fill="#FAFAFA" d="M52.061,62.87c2.567,2.266,5.304,4.474,8.228,6.449c-0.241-3.533-0.199-6.645,0.076-9.486
			c-2.052-0.918-4.005-2.078-5.871-3.391C53.611,59.031,52.757,61.209,52.061,62.87z"/>
		<path fill="#FAFAFA" d="M46.507,16.062c0.607-1.801,1.161-3.492,1.651-5.014c-0.256-0.44-0.501-0.862-0.737-1.262
			c-0.771-1.308-1.715-2.396-2.749-3.312c-0.64,1.498-1.407,3.319-2.27,5.408C43.579,12.938,44.999,14.402,46.507,16.062z"/>
		<path fill="#FAFAFA" d="M53.777,24.613c0.323-1.468,0.534-2.675,0.752-3.786c-1.062-1.34-2.019-2.699-2.89-4.028
			c-0.406,1.096-0.852,2.302-1.335,3.612C51.508,21.834,52.689,23.267,53.777,24.613z"/>
		<path fill="#FAFAFA" d="M24.371,33.979c1.153-1.89,2.348-3.989,3.544-6.296c-3.209-0.704-6.324-0.934-8.968-0.943
			c-1.288,2.354-2.542,4.625-3.69,6.685C18.09,33.372,21.279,33.49,24.371,33.979z"/>
		<path fill="#FAFAFA" d="M39.191,3.271c-3.938-1.468-7.497-1.47-7.497-1.47c-0.218,0.797-1.039,2.609-2.243,5.051
			c2.395,0.61,4.966,1.316,7.121,2.022C37.651,6.529,38.521,4.679,39.191,3.271z"/>
		<path fill="#FAFAFA" d="M30.837,21.603c1.047-2.366,2.003-4.506,2.875-6.444c-2.32-0.785-4.856-1.331-7.682-1.614
			c-1.085,2.071-2.259,4.278-3.463,6.52c2.528,0.323,5.386,0.817,8.253,1.575C30.826,21.627,30.831,21.614,30.837,21.603z"/>
	</g>
	<path fill="#FAFAFA" d="M1.577,60.567c-0.175,0.327-0.655,0.411-1.073,0.188l0,0c-0.418-0.224-0.614-0.669-0.44-0.996l31.76-59.446
		c0.174-0.326,0.654-0.411,1.072-0.188l0,0c0.417,0.224,0.615,0.669,0.44,0.995L1.577,60.567z"/>
</g>
</svg>
