<?xml version="1.0" encoding="utf-8"?>
<!-- Generator: Adobe Illustrator 16.0.4, SVG Export Plug-In . SVG Version: 6.00 Build 0)  -->
<!DOCTYPE svg PUBLIC "-//W3C//DTD SVG 1.1//EN" "http://www.w3.org/Graphics/SVG/1.1/DTD/svg11.dtd">
<svg version="1.1" id="Layer_1" xmlns="http://www.w3.org/2000/svg" xmlns:xlink="http://www.w3.org/1999/xlink" x="0px" y="0px"
	 width="68px" height="45px" viewBox="0 0 68 45" enable-background="new 0 0 68 45" xml:space="preserve">
<path fill="none" stroke="#F7F6EB" stroke-miterlimit="10" d="M61.5,41.665c0,1.565-1.27,2.835-2.835,2.835h-36.33
	c-1.566,0-2.835-1.27-2.835-2.835v-26.33c0-1.566,1.269-2.835,2.835-2.835h36.33c1.565,0,2.835,1.269,2.835,2.835V41.665z"/>
<path fill="none" stroke="#F7F6EB" stroke-miterlimit="10" d="M19,37.5H3.448c-1.565,0-2.948-1.27-2.948-2.835V8.335
	C0.5,6.769,1.883,5.5,3.448,5.5h36.33c1.565,0,2.722,1.269,2.722,2.835V12"/>
<path fill="none" stroke="#F7F6EB" stroke-miterlimit="10" d="M25.5,5V3.335c0-1.566,1.383-2.835,2.948-2.835h36.33
	c1.565,0,2.722,1.269,2.722,2.835v26.33c0,1.565-1.156,2.835-2.722,2.835H61"/>
<path fill="#F7F6EB" d="M47.031,33.333c0,0,4.31-4.137,1.167-8.167c-3.834-4.917-8.167-5.083-8.417-8.25
	c-0.75,0.333-1.5,0.584-1.5,0.584l3.333,16.25c0,0-2.833-1.334-5.083,0.416s-0.75,4.25,0,5s2.667,2.167,5.167,0.584
	c2.5-1.584,2.5-5,1.833-6.667s-2.417-10.167-2.417-10.167s4.251,1.75,5.084,3.75S47.031,33.333,47.031,33.333z"/>
<g>
</g>
<g>
</g>
<g>
</g>
<g>
</g>
<g>
</g>
<g>
</g>
<g>
</g>
<g>
</g>
<g>
</g>
<g>
</g>
<g>
</g>
<g>
</g>
<g>
</g>
<g>
</g>
<g>
</g>
</svg>
