<?xml version="1.0" encoding="utf-8"?>
<!-- Generator: Adobe Illustrator 16.0.4, SVG Export Plug-In . SVG Version: 6.00 Build 0)  -->
<!DOCTYPE svg PUBLIC "-//W3C//DTD SVG 1.1//EN" "http://www.w3.org/Graphics/SVG/1.1/DTD/svg11.dtd">
<svg version="1.1" id="Layer_2" xmlns="http://www.w3.org/2000/svg" xmlns:xlink="http://www.w3.org/1999/xlink" x="0px" y="0px"
	 width="64.958px" height="49.867px" viewBox="5.991 3.956 64.958 49.867" enable-background="new 5.991 3.956 64.958 49.867"
	 xml:space="preserve">
<path fill="none" stroke="#FFFFFF" stroke-linecap="round" stroke-miterlimit="10" d="M8.912,14.118
	C16.828,0.38,29.581,4.663,32.522,6.84c8.66,6.413,7.607,14.786,7.154,16.517c4.812-0.631,8.16-0.447,4.153,4.558
	c3.466,2.131,22.512,15.495,24.796,17.411c2.285,1.917,1.774,6.614,1.774,6.614l-8.855,1.356l-3.227-2.417l-0.953-3.038
	l-5.423,0.898l-2.131-1.984l-1.156-4.765l-5.795,0.874l-0.781-3.477l-3.929-3.201c0,0-2.039,4.518-2.937,4.542
	c-0.896,0.025-3.435-5.413-3.435-5.413s-7.741,7.709-19.326-0.167C11.378,34.417,2.233,25.715,8.912,14.118z"/>
<ellipse transform="matrix(-0.3974 -0.9176 0.9176 -0.3974 8.6107 40.3062)" fill="none" stroke="#FFFFFF" stroke-linecap="round" stroke-miterlimit="10" cx="17.539" cy="17.326" rx="3.667" ry="3.917"/>
<line fill="none" stroke="#FFFFFF" stroke-linecap="round" stroke-miterlimit="10" x1="34.765" y1="28.572" x2="70.401" y2="51.94"/>
<line fill="none" stroke="#FFFFFF" stroke-linecap="round" stroke-miterlimit="10" x1="36.398" y1="32.146" x2="67.18" y2="52.434"/>
</svg>
