<?xml version="1.0" encoding="utf-8"?>
<!-- Generator: Adobe Illustrator 16.0.4, SVG Export Plug-In . SVG Version: 6.00 Build 0)  -->
<!DOCTYPE svg PUBLIC "-//W3C//DTD SVG 1.1//EN" "http://www.w3.org/Graphics/SVG/1.1/DTD/svg11.dtd">
<svg version="1.1" id="Layer_1" xmlns="http://www.w3.org/2000/svg" xmlns:xlink="http://www.w3.org/1999/xlink" x="0px" y="0px"
	 width="194.464px" height="44.1px" viewBox="0 0 194.464 44.1" enable-background="new 0 0 194.464 44.1" xml:space="preserve">
<g>
	<defs>
		<path id="SVGID_1_" d="M9.486,16.258H8.818l2.983,7.659v7.705H0V0.447h13.004l6.369,14.607l6.368-14.607h12.96v31.175H26.944
			v-7.705l2.984-7.659H29.26l-4.454,11.445H13.939L9.486,16.258z"/>
	</defs>
	<clipPath id="SVGID_2_">
		<use xlink:href="#SVGID_1_"  overflow="visible"/>
	</clipPath>
	<g clip-path="url(#SVGID_2_)">
		
			<line fill="none" stroke="#F7F2F2" stroke-linecap="round" stroke-miterlimit="10" x1="0.558" y1="5.084" x2="0.558" y2="37.084"/>
		<path fill="none" stroke="#F7F2F2" stroke-linecap="round" stroke-miterlimit="10" d="M1.558,34.084"/>
		<path fill="none" stroke="#F7F2F2" stroke-linecap="round" stroke-miterlimit="10" d="M1.558,3.084"/>
		
			<line fill="none" stroke="#F7F2F2" stroke-linecap="round" stroke-miterlimit="10" x1="2.558" y1="34.084" x2="2.558" y2="2.084"/>
		
			<line fill="none" stroke="#F7F2F2" stroke-linecap="round" stroke-miterlimit="10" x1="4.558" y1="4.084" x2="4.558" y2="34.084"/>
		
			<line fill="none" stroke="#F7F2F2" stroke-linecap="round" stroke-miterlimit="10" x1="6.558" y1="34.084" x2="6.558" y2="4.084"/>
		
			<line fill="none" stroke="#F7F2F2" stroke-linecap="round" stroke-miterlimit="10" x1="8.558" y1="34.084" x2="8.558" y2="5.084"/>
		
			<line fill="none" stroke="#F7F2F2" stroke-linecap="round" stroke-miterlimit="10" x1="10.558" y1="3.084" x2="10.558" y2="33.084"/>
		
			<line fill="none" stroke="#F7F2F2" stroke-linecap="round" stroke-miterlimit="10" x1="12.558" y1="27.084" x2="12.558" y2="12.084"/>
		
			<line fill="none" stroke="#F7F2F2" stroke-linecap="round" stroke-miterlimit="10" x1="14.558" y1="29.084" x2="14.558" y2="11.084"/>
		
			<line fill="none" stroke="#F7F2F2" stroke-linecap="round" stroke-miterlimit="10" x1="16.558" y1="13.084" x2="16.558" y2="30.084"/>
		
			<line fill="none" stroke="#F7F2F2" stroke-linecap="round" stroke-miterlimit="10" x1="20.558" y1="12.084" x2="20.558" y2="30.084"/>
		
			<line fill="none" stroke="#F7F2F2" stroke-linecap="round" stroke-miterlimit="10" x1="18.558" y1="15.084" x2="18.558" y2="31.084"/>
		
			<line fill="none" stroke="#F7F2F2" stroke-linecap="round" stroke-miterlimit="10" x1="22.558" y1="36.084" x2="22.558" y2="13.084"/>
		
			<line fill="none" stroke="#F7F2F2" stroke-linecap="round" stroke-miterlimit="10" x1="24.558" y1="9.084" x2="24.558" y2="29.084"/>
		
			<line fill="none" stroke="#F7F2F2" stroke-linecap="round" stroke-miterlimit="10" x1="26.558" y1="1.084" x2="26.558" y2="36.084"/>
		
			<line fill="none" stroke="#F7F2F2" stroke-linecap="round" stroke-miterlimit="10" x1="28.558" y1="2.084" x2="28.558" y2="36.084"/>
		
			<line fill="none" stroke="#F7F2F2" stroke-linecap="round" stroke-miterlimit="10" x1="30.558" y1="35.084" x2="30.558" y2="5.084"/>
		
			<line fill="none" stroke="#F7F2F2" stroke-linecap="round" stroke-miterlimit="10" x1="32.558" y1="33.084" x2="32.558" y2="1.084"/>
		
			<line fill="none" stroke="#F7F2F2" stroke-linecap="round" stroke-miterlimit="10" x1="34.558" y1="33.084" x2="34.558" y2="4.084"/>
		
			<line fill="none" stroke="#F7F2F2" stroke-linecap="round" stroke-miterlimit="10" x1="38.558" y1="33.084" x2="38.558" y2="3.084"/>
		
			<line fill="none" stroke="#F7F2F2" stroke-linecap="round" stroke-miterlimit="10" x1="36.558" y1="32.084" x2="36.558" y2="2.084"/>
	</g>
</g>
<g>
	<defs>
		<path id="SVGID_3_" d="M58.113,0.671V0.447h11.668V16.97c0,20.442-29.75,20.442-29.75,0V0.447h11.579v0.224v16.166
			c0,5.077,6.502,5.077,6.502,0V0.671z"/>
	</defs>
	<clipPath id="SVGID_4_">
		<use xlink:href="#SVGID_3_"  overflow="visible"/>
	</clipPath>
	<g clip-path="url(#SVGID_4_)">
		
			<line fill="none" stroke="#F7F2F2" stroke-linecap="round" stroke-miterlimit="10" x1="40.558" y1="1.084" x2="40.558" y2="26.084"/>
		
			<line fill="none" stroke="#F7F2F2" stroke-linecap="round" stroke-miterlimit="10" x1="44.558" y1="2.084" x2="44.558" y2="31.084"/>
		
			<line fill="none" stroke="#F7F2F2" stroke-linecap="round" stroke-miterlimit="10" x1="42.558" y1="3.084" x2="42.558" y2="32.084"/>
		
			<line fill="none" stroke="#F7F2F2" stroke-linecap="round" stroke-miterlimit="10" x1="46.558" y1="32.084" x2="46.558" y2="6.084"/>
		
			<line fill="none" stroke="#F7F2F2" stroke-linecap="round" stroke-miterlimit="10" x1="50.558" y1="35.084" x2="50.558" y2="4.084"/>
		
			<line fill="none" stroke="#F7F2F2" stroke-linecap="round" stroke-miterlimit="10" x1="48.558" y1="35.084" x2="48.558" y2="4.084"/>
		
			<line fill="none" stroke="#F7F2F2" stroke-linecap="round" stroke-miterlimit="10" x1="52.558" y1="21.084" x2="52.558" y2="34.084"/>
		
			<line fill="none" stroke="#F7F2F2" stroke-linecap="round" stroke-miterlimit="10" x1="54.558" y1="22.084" x2="54.558" y2="33.084"/>
		
			<line fill="none" stroke="#F7F2F2" stroke-linecap="round" stroke-miterlimit="10" x1="56.558" y1="22.084" x2="56.558" y2="33.084"/>
		
			<line fill="none" stroke="#F7F2F2" stroke-linecap="round" stroke-miterlimit="10" x1="58.558" y1="33.084" x2="58.558" y2="4.084"/>
		
			<line fill="none" stroke="#F7F2F2" stroke-linecap="round" stroke-miterlimit="10" x1="60.558" y1="32.084" x2="60.558" y2="3.084"/>
		
			<line fill="none" stroke="#F7F2F2" stroke-linecap="round" stroke-miterlimit="10" x1="62.558" y1="31.084" x2="62.558" y2="2.084"/>
		
			<line fill="none" stroke="#F7F2F2" stroke-linecap="round" stroke-miterlimit="10" x1="64.558" y1="4.084" x2="64.558" y2="29.084"/>
		
			<line fill="none" stroke="#F7F2F2" stroke-linecap="round" stroke-miterlimit="10" x1="66.558" y1="3.084" x2="66.558" y2="28.084"/>
		
			<line fill="none" stroke="#F7F2F2" stroke-linecap="round" stroke-miterlimit="10" x1="68.558" y1="7.084" x2="68.558" y2="32.084"/>
	</g>
</g>
<g>
	<defs>
		<path id="SVGID_5_" d="M70.801,31.622V19.909h6.502l-0.49-0.757h-3.296c-3.607-3.429-3.206-9.798-1.559-12.87
			c2.806-5.256,7.037-5.835,13.494-5.835h16.745v11.802H87.146c-5.3,0-5.879,7.704-0.045,7.704c4.766,0,4.543-6.057,0.936-6.947
			h10.555c4.72,3.607,4.72,10.065,2.003,14.119c-3.028,4.497-7.348,4.497-12.558,4.497H70.801z"/>
	</defs>
	<clipPath id="SVGID_6_">
		<use xlink:href="#SVGID_5_"  overflow="visible"/>
	</clipPath>
	<g clip-path="url(#SVGID_6_)">
		
			<line fill="none" stroke="#F7F2F2" stroke-linecap="round" stroke-miterlimit="10" x1="73.558" y1="22.084" x2="73.558" y2="33.084"/>
		
			<line fill="none" stroke="#F7F2F2" stroke-linecap="round" stroke-miterlimit="10" x1="75.558" y1="22.084" x2="75.558" y2="33.084"/>
		
			<line fill="none" stroke="#F7F2F2" stroke-linecap="round" stroke-miterlimit="10" x1="79.558" y1="2.084" x2="79.558" y2="33.084"/>
		
			<line fill="none" stroke="#F7F2F2" stroke-linecap="round" stroke-miterlimit="10" x1="77.558" y1="1.084" x2="77.558" y2="33.084"/>
		
			<line fill="none" stroke="#F7F2F2" stroke-linecap="round" stroke-miterlimit="10" x1="81.558" y1="4.084" x2="81.558" y2="32.084"/>
		
			<line fill="none" stroke="#F7F2F2" stroke-linecap="round" stroke-miterlimit="10" x1="83.558" y1="3.084" x2="83.558" y2="32.084"/>
		<polyline fill="none" stroke="#F7F2F2" stroke-linecap="round" stroke-miterlimit="10" points="85.558,22.084 85.558,33.045 
			85.558,37.084 		"/>
		
			<line fill="none" stroke="#F7F2F2" stroke-linecap="round" stroke-miterlimit="10" x1="87.558" y1="23.084" x2="87.558" y2="33.084"/>
		
			<line fill="none" stroke="#F7F2F2" stroke-linecap="round" stroke-miterlimit="10" x1="89.558" y1="21.084" x2="89.558" y2="33.084"/>
		
			<line fill="none" stroke="#F7F2F2" stroke-linecap="round" stroke-miterlimit="10" x1="91.558" y1="14.084" x2="91.558" y2="33.084"/>
		
			<line fill="none" stroke="#F7F2F2" stroke-linecap="round" stroke-miterlimit="10" x1="93.558" y1="17.084" x2="93.558" y2="32.084"/>
		
			<line fill="none" stroke="#F7F2F2" stroke-linecap="round" stroke-miterlimit="10" x1="95.558" y1="14.084" x2="95.558" y2="31.084"/>
		
			<line fill="none" stroke="#F7F2F2" stroke-linecap="round" stroke-miterlimit="10" x1="97.558" y1="14.084" x2="97.558" y2="30.084"/>
		
			<line fill="none" stroke="#F7F2F2" stroke-linecap="round" stroke-miterlimit="10" x1="99.558" y1="17.084" x2="99.558" y2="31.084"/>
		
			<line fill="none" stroke="#F7F2F2" stroke-linecap="round" stroke-miterlimit="10" x1="101.558" y1="14.084" x2="101.558" y2="29.084"/>
		
			<line fill="none" stroke="#F7F2F2" stroke-linecap="round" stroke-miterlimit="10" x1="75.558" y1="19.084" x2="75.558" y2="5.084"/>
		
			<line fill="none" stroke="#F7F2F2" stroke-linecap="round" stroke-miterlimit="10" x1="73.558" y1="19.084" x2="73.558" y2="7.084"/>
		
			<line fill="none" stroke="#F7F2F2" stroke-linecap="round" stroke-miterlimit="10" x1="71.558" y1="19.084" x2="71.558" y2="7.084"/>
		
			<line fill="none" stroke="#F7F2F2" stroke-linecap="round" stroke-miterlimit="10" x1="85.558" y1="14.084" x2="85.558" y2="1.084"/>
		
			<line fill="none" stroke="#F7F2F2" stroke-linecap="round" stroke-miterlimit="10" x1="87.558" y1="13.084" x2="87.558" y2="2.084"/>
		
			<line fill="none" stroke="#F7F2F2" stroke-linecap="round" stroke-miterlimit="10" x1="89.558" y1="1.084" x2="89.558" y2="12.084"/>
		
			<line fill="none" stroke="#F7F2F2" stroke-linecap="round" stroke-miterlimit="10" x1="91.558" y1="12.084" x2="91.558" y2="3.084"/>
		
			<line fill="none" stroke="#F7F2F2" stroke-linecap="round" stroke-miterlimit="10" x1="93.558" y1="12.084" x2="93.558" y2="2.084"/>
		
			<line fill="none" stroke="#F7F2F2" stroke-linecap="round" stroke-miterlimit="10" x1="95.558" y1="4.084" x2="95.558" y2="12.084"/>
		
			<line fill="none" stroke="#F7F2F2" stroke-linecap="round" stroke-miterlimit="10" x1="97.558" y1="1.084" x2="97.558" y2="12.084"/>
		
			<line fill="none" stroke="#F7F2F2" stroke-linecap="round" stroke-miterlimit="10" x1="99.558" y1="1.084" x2="99.558" y2="12.084"/>
		
			<line fill="none" stroke="#F7F2F2" stroke-linecap="round" stroke-miterlimit="10" x1="101.558" y1="1.084" x2="101.558" y2="12.084"/>
		
			<line fill="none" stroke="#F7F2F2" stroke-linecap="round" stroke-miterlimit="10" x1="71.558" y1="22.084" x2="71.558" y2="32.084"/>
	</g>
</g>
<g>
	<defs>
		<path id="SVGID_7_" d="M120.098,0c-9.397,0-17.057,7.348-17.057,16.434c0,9.084,7.659,16.477,17.057,16.477
			s17.013-7.393,17.013-16.477C137.11,7.348,129.495,0,120.098,0z M121.841,21.739l-6.783,4.283v-8.566V8.889l6.798,4.284
			l6.652,4.283L121.841,21.739z"/>
	</defs>
	<clipPath id="SVGID_8_">
		<use xlink:href="#SVGID_7_"  overflow="visible"/>
	</clipPath>
	<g clip-path="url(#SVGID_8_)">
		
			<line fill="none" stroke="#F7F2F2" stroke-linecap="round" stroke-miterlimit="10" x1="103.558" y1="8.084" x2="103.558" y2="26.084"/>
		
			<line fill="none" stroke="#F7F2F2" stroke-linecap="round" stroke-miterlimit="10" x1="107.558" y1="28.084" x2="107.558" y2="11.084"/>
		
			<line fill="none" stroke="#F7F2F2" stroke-linecap="round" stroke-miterlimit="10" x1="109.558" y1="30.084" x2="109.558" y2="9.084"/>
		
			<line fill="none" stroke="#F7F2F2" stroke-linecap="round" stroke-miterlimit="10" x1="111.558" y1="4.084" x2="111.558" y2="31.084"/>
		
			<line fill="none" stroke="#F7F2F2" stroke-linecap="round" stroke-miterlimit="10" x1="113.558" y1="2.084" x2="113.558" y2="33.084"/>
		
			<line fill="none" stroke="#F7F2F2" stroke-linecap="round" stroke-miterlimit="10" x1="115.558" y1="4.084" x2="115.558" y2="33.084"/>
		
			<line fill="none" stroke="#F7F2F2" stroke-linecap="round" stroke-miterlimit="10" x1="117.558" y1="8.084" x2="117.558" y2="33.084"/>
		
			<line fill="none" stroke="#F7F2F2" stroke-linecap="round" stroke-miterlimit="10" x1="119.558" y1="4.084" x2="119.558" y2="33.084"/>
		
			<line fill="none" stroke="#F7F2F2" stroke-linecap="round" stroke-miterlimit="10" x1="121.558" y1="1.084" x2="121.558" y2="33.084"/>
		
			<line fill="none" stroke="#F7F2F2" stroke-linecap="round" stroke-miterlimit="10" x1="123.558" y1="4.084" x2="123.558" y2="33.084"/>
		
			<line fill="none" stroke="#F7F2F2" stroke-linecap="round" stroke-miterlimit="10" x1="125.558" y1="6.084" x2="125.558" y2="33.084"/>
		
			<line fill="none" stroke="#F7F2F2" stroke-linecap="round" stroke-miterlimit="10" x1="127.558" y1="5.084" x2="127.558" y2="33.084"/>
		
			<line fill="none" stroke="#F7F2F2" stroke-linecap="round" stroke-miterlimit="10" x1="129.558" y1="6.084" x2="129.558" y2="33.084"/>
		
			<line fill="none" stroke="#F7F2F2" stroke-linecap="round" stroke-miterlimit="10" x1="131.558" y1="4.084" x2="131.558" y2="31.084"/>
		
			<line fill="none" stroke="#F7F2F2" stroke-linecap="round" stroke-miterlimit="10" x1="133.558" y1="9.084" x2="133.558" y2="28.084"/>
		
			<line fill="none" stroke="#F7F2F2" stroke-linecap="round" stroke-miterlimit="10" x1="135.558" y1="9.084" x2="135.558" y2="25.084"/>
		
			<line fill="none" stroke="#F7F2F2" stroke-linecap="round" stroke-miterlimit="10" x1="105.558" y1="10.084" x2="105.558" y2="27.084"/>
	</g>
</g>
<g>
	<defs>
		<path id="SVGID_9_" d="M138.085,31.622V0.447h12.782c12.426,0,16.39,5.612,16.256,12.158c-0.045,3.251-1.515,6.637-4.988,7.794
			l6.102,11.223h-12.114l-5.655-11.803v-4.274h2.671c1.56,0,2.406-1.158,2.406-2.004c-0.045-1.47-1.336-2.36-2.628-2.36h-3.251
			v20.441H138.085z"/>
	</defs>
	<clipPath id="SVGID_10_">
		<use xlink:href="#SVGID_9_"  overflow="visible"/>
	</clipPath>
	<g clip-path="url(#SVGID_10_)">
		
			<line fill="none" stroke="#F7F2F2" stroke-linecap="round" stroke-miterlimit="10" x1="138.558" y1="2.084" x2="138.558" y2="32.084"/>
		
			<line fill="none" stroke="#F7F2F2" stroke-linecap="round" stroke-miterlimit="10" x1="140.558" y1="4.084" x2="140.558" y2="33.084"/>
		
			<line fill="none" stroke="#F7F2F2" stroke-linecap="round" stroke-miterlimit="10" x1="142.558" y1="2.084" x2="142.558" y2="33.084"/>
		
			<line fill="none" stroke="#F7F2F2" stroke-linecap="round" stroke-miterlimit="10" x1="144.558" y1="6.084" x2="144.558" y2="33.084"/>
		
			<line fill="none" stroke="#F7F2F2" stroke-linecap="round" stroke-miterlimit="10" x1="146.558" y1="3.084" x2="146.558" y2="34.084"/>
		
			<line fill="none" stroke="#F7F2F2" stroke-linecap="round" stroke-miterlimit="10" x1="148.558" y1="1.084" x2="148.558" y2="33.084"/>
		
			<line fill="none" stroke="#F7F2F2" stroke-linecap="round" stroke-miterlimit="10" x1="150.558" y1="2.084" x2="150.558" y2="12.084"/>
		
			<line fill="none" stroke="#F7F2F2" stroke-linecap="round" stroke-miterlimit="10" x1="152.558" y1="8.084" x2="152.558" y2="12.084"/>
		
			<line fill="none" stroke="#F7F2F2" stroke-linecap="round" stroke-miterlimit="10" x1="154.558" y1="4.084" x2="154.558" y2="12.084"/>
		
			<line fill="none" stroke="#F7F2F2" stroke-linecap="round" stroke-miterlimit="10" x1="150.558" y1="17.084" x2="150.558" y2="24.084"/>
		
			<line fill="none" stroke="#F7F2F2" stroke-linecap="round" stroke-miterlimit="10" x1="152.558" y1="19.084" x2="152.558" y2="28.084"/>
		
			<line fill="none" stroke="#F7F2F2" stroke-linecap="round" stroke-miterlimit="10" x1="154.558" y1="17.084" x2="154.558" y2="30.084"/>
		
			<line fill="none" stroke="#F7F2F2" stroke-linecap="round" stroke-miterlimit="10" x1="156.558" y1="6.084" x2="156.558" y2="33.084"/>
		
			<line fill="none" stroke="#F7F2F2" stroke-linecap="round" stroke-miterlimit="10" x1="158.558" y1="4.084" x2="158.558" y2="33.084"/>
		
			<line fill="none" stroke="#F7F2F2" stroke-linecap="round" stroke-miterlimit="10" x1="160.558" y1="12.084" x2="160.558" y2="33.084"/>
		
			<line fill="none" stroke="#F7F2F2" stroke-linecap="round" stroke-miterlimit="10" x1="162.558" y1="7.084" x2="162.558" y2="35.084"/>
		
			<line fill="none" stroke="#F7F2F2" stroke-linecap="round" stroke-miterlimit="10" x1="164.558" y1="4.084" x2="164.558" y2="33.084"/>
		
			<line fill="none" stroke="#F7F2F2" stroke-linecap="round" stroke-miterlimit="10" x1="166.558" y1="7.084" x2="166.558" y2="33.084"/>
	</g>
</g>
<g>
	<defs>
		<path id="SVGID_11_" d="M179.634,10.779v0.802h14.83v8.908h-14.83v0.801h14.83v10.332h-26.41c0-10.377,0-20.798,0-31.175h26.41
			v10.332H179.634z"/>
	</defs>
	<clipPath id="SVGID_12_">
		<use xlink:href="#SVGID_11_"  overflow="visible"/>
	</clipPath>
	<g clip-path="url(#SVGID_12_)">
		
			<line fill="none" stroke="#F7F2F2" stroke-linecap="round" stroke-miterlimit="10" x1="168.558" y1="4.084" x2="168.558" y2="33.084"/>
		
			<line fill="none" stroke="#F7F2F2" stroke-linecap="round" stroke-miterlimit="10" x1="170.558" y1="6.084" x2="170.558" y2="33.084"/>
		
			<line fill="none" stroke="#F7F2F2" stroke-linecap="round" stroke-miterlimit="10" x1="172.558" y1="4.084" x2="172.558" y2="33.084"/>
		
			<line fill="none" stroke="#F7F2F2" stroke-linecap="round" stroke-miterlimit="10" x1="174.558" y1="8.084" x2="174.558" y2="33.084"/>
		
			<line fill="none" stroke="#F7F2F2" stroke-linecap="round" stroke-miterlimit="10" x1="176.558" y1="1.084" x2="176.558" y2="33.084"/>
		
			<line fill="none" stroke="#F7F2F2" stroke-linecap="round" stroke-miterlimit="10" x1="178.558" y1="3.084" x2="178.558" y2="33.084"/>
		
			<line fill="none" stroke="#F7F2F2" stroke-linecap="round" stroke-miterlimit="10" x1="180.558" y1="4.084" x2="180.558" y2="11.084"/>
		
			<line fill="none" stroke="#F7F2F2" stroke-linecap="round" stroke-miterlimit="10" x1="182.558" y1="4.084" x2="182.558" y2="11.084"/>
		
			<line fill="none" stroke="#F7F2F2" stroke-linecap="round" stroke-miterlimit="10" x1="184.558" y1="7.084" x2="184.558" y2="11.084"/>
		
			<line fill="none" stroke="#F7F2F2" stroke-linecap="round" stroke-miterlimit="10" x1="186.558" y1="1.084" x2="186.558" y2="11.084"/>
		
			<line fill="none" stroke="#F7F2F2" stroke-linecap="round" stroke-miterlimit="10" x1="188.558" y1="2.084" x2="188.558" y2="11.084"/>
		
			<line fill="none" stroke="#F7F2F2" stroke-linecap="round" stroke-miterlimit="10" x1="190.558" y1="4.084" x2="190.558" y2="11.084"/>
		
			<line fill="none" stroke="#F7F2F2" stroke-linecap="round" stroke-miterlimit="10" x1="192.558" y1="1.084" x2="192.558" y2="11.084"/>
		
			<line fill="none" stroke="#F7F2F2" stroke-linecap="round" stroke-miterlimit="10" x1="180.558" y1="20.084" x2="180.558" y2="13.084"/>
		
			<line fill="none" stroke="#F7F2F2" stroke-linecap="round" stroke-miterlimit="10" x1="182.558" y1="14.084" x2="182.558" y2="20.084"/>
		
			<line fill="none" stroke="#F7F2F2" stroke-linecap="round" stroke-miterlimit="10" x1="184.558" y1="13.084" x2="184.558" y2="20.084"/>
		
			<line fill="none" stroke="#F7F2F2" stroke-linecap="round" stroke-miterlimit="10" x1="186.558" y1="16.084" x2="186.558" y2="20.084"/>
		
			<line fill="none" stroke="#F7F2F2" stroke-linecap="round" stroke-miterlimit="10" x1="188.558" y1="14.084" x2="188.558" y2="20.084"/>
		
			<line fill="none" stroke="#F7F2F2" stroke-linecap="round" stroke-miterlimit="10" x1="190.558" y1="17.084" x2="190.558" y2="20.084"/>
		
			<line fill="none" stroke="#F7F2F2" stroke-linecap="round" stroke-miterlimit="10" x1="192.558" y1="14.084" x2="192.558" y2="20.084"/>
		
			<line fill="none" stroke="#F7F2F2" stroke-linecap="round" stroke-miterlimit="10" x1="180.558" y1="23.084" x2="180.558" y2="33.084"/>
		
			<line fill="none" stroke="#F7F2F2" stroke-linecap="round" stroke-miterlimit="10" x1="182.558" y1="23.084" x2="182.558" y2="33.084"/>
		
			<line fill="none" stroke="#F7F2F2" stroke-linecap="round" stroke-miterlimit="10" x1="184.558" y1="25.084" x2="184.558" y2="33.084"/>
		
			<line fill="none" stroke="#F7F2F2" stroke-linecap="round" stroke-miterlimit="10" x1="186.558" y1="27.084" x2="186.558" y2="33.084"/>
		
			<line fill="none" stroke="#F7F2F2" stroke-linecap="round" stroke-miterlimit="10" x1="188.558" y1="26.084" x2="188.558" y2="33.084"/>
		
			<line fill="none" stroke="#F7F2F2" stroke-linecap="round" stroke-miterlimit="10" x1="190.558" y1="22.084" x2="190.558" y2="33.084"/>
		
			<line fill="none" stroke="#F7F2F2" stroke-linecap="round" stroke-miterlimit="10" x1="192.558" y1="24.084" x2="192.558" y2="34.084"/>
	</g>
</g>
<g>
	<path fill="#F7F2F2" d="M125.274,40.539v1.629c0,0.116-0.097,0.213-0.206,0.213c-0.11,0-0.206-0.097-0.206-0.213v-1.629
		l-1.32-2.189c-0.025-0.032-0.059-0.058-0.109-0.058c-0.116,0-0.193-0.084-0.193-0.199c0-0.174,0.148-0.22,0.277-0.22
		c0.135,0,0.264,0.071,0.341,0.2l0.934,1.545l0.271,0.535h0.007l0.276-0.535l0.934-1.545c0.078-0.129,0.207-0.2,0.342-0.2
		c0.129,0,0.277,0.046,0.277,0.22c0,0.115-0.078,0.199-0.193,0.199c-0.052,0-0.084,0.025-0.109,0.058L125.274,40.539z"/>
	<path fill="#F7F2F2" d="M126.793,40.7c0-0.934,0.767-1.7,1.706-1.7c0.947,0,1.713,0.767,1.713,1.7c0,0.946-0.766,1.713-1.713,1.713
		C127.56,42.413,126.793,41.646,126.793,40.7z M127.198,40.7c0,0.722,0.593,1.301,1.301,1.301c0.722,0,1.308-0.579,1.308-1.301
		c0-0.708-0.586-1.288-1.308-1.288C127.791,39.412,127.198,39.992,127.198,40.7z"/>
	<path fill="#F7F2F2" d="M133.425,41.865c-0.187,0.342-0.682,0.516-0.972,0.516c-0.96,0-1.462-0.509-1.462-1.468v-1.404
		c0-0.064-0.045-0.084-0.045-0.084c-0.077-0.032-0.123-0.109-0.123-0.187c0-0.122,0.104-0.206,0.22-0.206
		c0.238,0,0.36,0.206,0.36,0.451v1.43c0,0.728,0.335,1.056,1.062,1.056c0.547,0,0.959-0.354,0.959-0.889v-1.597
		c0-0.245,0.123-0.451,0.361-0.451c0.115,0,0.219,0.084,0.219,0.206c0,0.077-0.045,0.154-0.123,0.187c0,0-0.045,0.02-0.045,0.084
		v2.396c0,0.064,0.045,0.084,0.045,0.084c0.078,0.032,0.123,0.109,0.123,0.187c0,0.122-0.104,0.206-0.219,0.206
		C133.503,42.381,133.405,42.11,133.425,41.865z"/>
	<path fill="#F7F2F2" d="M135.376,39.265c0.006,0.019,0.02,0.077,0.02,0.135c0.16-0.251,0.463-0.399,0.779-0.399
		c0.193,0,0.393,0.032,0.586,0.104c0.083,0.032,0.141,0.097,0.141,0.206c0,0.154-0.147,0.238-0.283,0.193
		c-0.135-0.046-0.296-0.078-0.443-0.078c-0.367,0-0.754,0.193-0.754,0.6v1.905c0,0.245-0.122,0.451-0.36,0.451
		c-0.116,0-0.22-0.084-0.22-0.206c0-0.077,0.046-0.154,0.123-0.187c0,0,0.045-0.02,0.045-0.084v-2.396
		c0-0.064-0.045-0.084-0.045-0.084c-0.077-0.032-0.123-0.109-0.123-0.187c0-0.122,0.104-0.206,0.22-0.206
		C135.215,39.032,135.324,39.129,135.376,39.265z"/>
	<path fill="#F7F2F2" d="M139.348,40.7c0-0.934,0.767-1.7,1.706-1.7c0.947,0,1.713,0.767,1.713,1.7c0,0.946-0.766,1.713-1.713,1.713
		C140.114,42.413,139.348,41.646,139.348,40.7z M139.753,40.7c0,0.722,0.593,1.301,1.301,1.301c0.722,0,1.308-0.579,1.308-1.301
		c0-0.708-0.586-1.288-1.308-1.288C140.346,39.412,139.753,39.992,139.753,40.7z"/>
	<path fill="#F7F2F2" d="M146.019,41.93v-1.429c0-0.612-0.271-1.057-1.018-1.057c-0.554,0-0.979,0.393-0.979,0.96v1.525
		c0,0.245-0.122,0.451-0.36,0.451c-0.116,0-0.22-0.084-0.22-0.206c0-0.077,0.046-0.154,0.123-0.187c0,0,0.045-0.02,0.045-0.084
		v-2.383c0-0.064-0.045-0.077-0.045-0.077c-0.077-0.032-0.123-0.115-0.123-0.193c0-0.122,0.098-0.219,0.213-0.219
		c0.226,0,0.367,0.155,0.367,0.419v0.116c0.032-0.059,0.354-0.535,0.979-0.535c0.947,0,1.43,0.561,1.43,1.52v1.353
		c0,0.064,0.045,0.084,0.045,0.084c0.078,0.032,0.123,0.109,0.123,0.187c0,0.122-0.104,0.206-0.219,0.206
		C146.142,42.381,146.019,42.175,146.019,41.93z"/>
	<path fill="#F7F2F2" d="M147.519,41.93v-3.786c0-0.064-0.045-0.083-0.045-0.083c-0.078-0.032-0.123-0.109-0.123-0.188
		c0-0.122,0.104-0.206,0.219-0.206c0.238,0,0.361,0.206,0.361,0.451v3.786c0,0.064,0.045,0.084,0.045,0.084
		c0.077,0.032,0.122,0.109,0.122,0.187c0,0.122-0.103,0.206-0.219,0.206C147.641,42.381,147.519,42.175,147.519,41.93z"/>
	<path fill="#F7F2F2" d="M148.94,41.93v-2.421c0-0.064-0.045-0.084-0.045-0.084c-0.076-0.032-0.122-0.109-0.122-0.187
		c0-0.122,0.103-0.206,0.22-0.206c0.238,0,0.359,0.206,0.359,0.451v2.421c0,0.064,0.045,0.084,0.045,0.084
		c0.078,0.032,0.123,0.109,0.123,0.187c0,0.122-0.104,0.206-0.219,0.206C149.063,42.381,148.94,42.175,148.94,41.93z
		 M148.786,37.964c0-0.168,0.136-0.297,0.297-0.297c0.16,0,0.303,0.129,0.303,0.29c0,0.168-0.136,0.303-0.303,0.303
		C148.922,38.26,148.786,38.125,148.786,37.964z"/>
	<path fill="#F7F2F2" d="M152.837,41.93v-1.429c0-0.612-0.271-1.057-1.018-1.057c-0.555,0-0.979,0.393-0.979,0.96v1.525
		c0,0.245-0.123,0.451-0.361,0.451c-0.115,0-0.219-0.084-0.219-0.206c0-0.077,0.045-0.154,0.123-0.187c0,0,0.045-0.02,0.045-0.084
		v-2.383c0-0.064-0.045-0.077-0.045-0.077c-0.078-0.032-0.123-0.115-0.123-0.193c0-0.122,0.097-0.219,0.213-0.219
		c0.225,0,0.367,0.155,0.367,0.419v0.116c0.031-0.059,0.354-0.535,0.979-0.535c0.946,0,1.43,0.561,1.43,1.52v1.353
		c0,0.064,0.045,0.084,0.045,0.084c0.077,0.032,0.122,0.109,0.122,0.187c0,0.122-0.103,0.206-0.219,0.206
		C152.959,42.381,152.837,42.175,152.837,41.93z"/>
	<path fill="#F7F2F2" d="M154.427,40.913c0.084,0.566,0.547,1.088,1.152,1.088c0.451,0,0.773-0.136,0.985-0.348
		c0.045-0.045,0.103-0.064,0.161-0.064c0.103,0,0.206,0.084,0.206,0.193c0,0.058-0.02,0.109-0.058,0.147
		c-0.291,0.31-0.709,0.483-1.295,0.483c-0.928,0-1.571-0.799-1.571-1.713c0-0.876,0.644-1.7,1.571-1.7
		c0.934,0,1.584,0.818,1.584,1.7c0,0.122-0.109,0.213-0.219,0.213H154.427z M156.745,40.501c-0.078-0.573-0.561-1.089-1.166-1.089
		c-0.592,0-1.088,0.516-1.152,1.089H156.745z"/>
	<path fill="#F7F2F2" d="M159.821,42.175c0-0.077,0.046-0.154,0.123-0.187c0,0,0.045-0.02,0.045-0.084v-2.396
		c0-0.064-0.045-0.084-0.045-0.084c-0.077-0.032-0.123-0.109-0.123-0.187c0-0.122,0.104-0.206,0.22-0.206
		c0.226,0,0.348,0.193,0.36,0.425c0,0.007,0,0.039,0,0.046c0.219-0.335,0.561-0.471,0.908-0.471c0.398,0,0.855,0.123,1.075,0.567
		c0.226-0.381,0.631-0.567,1.05-0.567c0.605,0,1.217,0.393,1.217,1.23v1.642c0,0.064,0.045,0.084,0.045,0.084
		c0.077,0.032,0.123,0.109,0.123,0.187c0,0.122-0.104,0.206-0.22,0.206c-0.238,0-0.36-0.206-0.36-0.451v-1.674
		c0-0.573-0.444-0.812-0.818-0.812c-0.547,0-0.895,0.31-0.895,0.869v1.861c0,0.109-0.09,0.206-0.206,0.206
		c-0.109,0-0.206-0.097-0.206-0.206v-1.919c0-0.611-0.444-0.812-0.818-0.812c-0.533,0-0.895,0.348-0.895,0.883v1.603
		c0,0.245-0.122,0.451-0.36,0.451C159.925,42.381,159.821,42.297,159.821,42.175z"/>
	<path fill="#F7F2F2" d="M167.967,41.865c-0.187,0.342-0.683,0.516-0.972,0.516c-0.96,0-1.463-0.509-1.463-1.468v-1.404
		c0-0.064-0.045-0.084-0.045-0.084c-0.077-0.032-0.122-0.109-0.122-0.187c0-0.122,0.103-0.206,0.22-0.206
		c0.237,0,0.359,0.206,0.359,0.451v1.43c0,0.728,0.336,1.056,1.062,1.056c0.548,0,0.96-0.354,0.96-0.889v-1.597
		c0-0.245,0.122-0.451,0.36-0.451c0.116,0,0.219,0.084,0.219,0.206c0,0.077-0.045,0.154-0.122,0.187c0,0-0.045,0.02-0.045,0.084
		v2.396c0,0.064,0.045,0.084,0.045,0.084c0.077,0.032,0.122,0.109,0.122,0.187c0,0.122-0.103,0.206-0.219,0.206
		C168.044,42.381,167.947,42.11,167.967,41.865z"/>
	<path fill="#F7F2F2" d="M170.374,42.413c-0.315,0-0.689-0.129-0.953-0.303c-0.064-0.045-0.09-0.109-0.09-0.174
		c0-0.148,0.174-0.264,0.354-0.142c0.188,0.135,0.445,0.206,0.715,0.206c0.4,0,0.767-0.193,0.767-0.457
		c0-0.328-0.405-0.471-0.772-0.618c-0.426-0.168-1.076-0.444-1.076-1.024c0-0.515,0.535-0.901,1.134-0.901
		c0.349,0,0.677,0.123,0.908,0.31c0.058,0.052,0.083,0.115,0.083,0.174c0,0.147-0.186,0.264-0.341,0.147
		c-0.181-0.142-0.419-0.219-0.65-0.219c-0.386,0-0.722,0.226-0.722,0.496c0,0.309,0.458,0.483,0.768,0.605
		c0.477,0.193,1.088,0.489,1.088,1.03C171.585,42.182,170.876,42.413,170.374,42.413z"/>
	<path fill="#F7F2F2" d="M172.396,41.93v-2.421c0-0.064-0.045-0.084-0.045-0.084c-0.077-0.032-0.123-0.109-0.123-0.187
		c0-0.122,0.104-0.206,0.22-0.206c0.238,0,0.36,0.206,0.36,0.451v2.421c0,0.064,0.045,0.084,0.045,0.084
		c0.078,0.032,0.123,0.109,0.123,0.187c0,0.122-0.104,0.206-0.219,0.206C172.519,42.381,172.396,42.175,172.396,41.93z
		 M172.241,37.964c0-0.168,0.135-0.297,0.296-0.297s0.303,0.129,0.303,0.29c0,0.168-0.136,0.303-0.303,0.303
		C172.376,38.26,172.241,38.125,172.241,37.964z"/>
	<path fill="#F7F2F2" d="M173.587,40.713c0-0.946,0.772-1.713,1.719-1.713c0.373,0,0.74,0.116,1.037,0.348
		c0.258,0.2-0.014,0.528-0.258,0.335c-0.232-0.18-0.502-0.264-0.779-0.264c-0.715,0-1.313,0.566-1.313,1.294
		c0,0.702,0.599,1.281,1.313,1.281c0.277,0,0.547-0.083,0.779-0.271c0.232-0.187,0.509,0.136,0.258,0.335
		c-0.29,0.232-0.664,0.354-1.037,0.354C174.359,42.413,173.587,41.646,173.587,40.713z"/>
	<path fill="#F7F2F2" d="M180.051,42.413c-0.315,0-0.688-0.129-0.953-0.303c-0.063-0.045-0.09-0.109-0.09-0.174
		c0-0.148,0.174-0.264,0.354-0.142c0.187,0.135,0.443,0.206,0.715,0.206c0.398,0,0.766-0.193,0.766-0.457
		c0-0.328-0.406-0.471-0.772-0.618c-0.425-0.168-1.075-0.444-1.075-1.024c0-0.515,0.534-0.901,1.133-0.901
		c0.348,0,0.676,0.123,0.908,0.31c0.059,0.052,0.084,0.115,0.084,0.174c0,0.147-0.188,0.264-0.342,0.147
		c-0.18-0.142-0.418-0.219-0.65-0.219c-0.387,0-0.721,0.226-0.721,0.496c0,0.309,0.457,0.483,0.766,0.605
		c0.477,0.193,1.088,0.489,1.088,1.03C181.261,42.182,180.554,42.413,180.051,42.413z"/>
	<path fill="#F7F2F2" d="M182.556,38.518v0.515h0.734c0.109,0,0.18,0.104,0.18,0.206c0,0.123-0.097,0.206-0.206,0.206h-0.708v1.726
		c0,0.399,0.064,0.799,0.534,0.799c0.116,0,0.257-0.032,0.367-0.064c0.128-0.032,0.237,0.039,0.264,0.142
		c0.026,0.097,0,0.213-0.142,0.258s-0.309,0.077-0.489,0.077c-0.683,0-0.946-0.457-0.946-1.211v-1.726h-0.193
		c-0.129,0-0.206-0.097-0.206-0.206c0-0.103,0.071-0.206,0.181-0.206h0.219v-0.489c0-0.064-0.045-0.084-0.045-0.084
		c-0.078-0.032-0.123-0.109-0.123-0.187c0-0.122,0.104-0.206,0.219-0.206C182.433,38.066,182.556,38.272,182.556,38.518z"/>
	<path fill="#F7F2F2" d="M184.056,40.7c0-0.934,0.766-1.7,1.706-1.7c0.946,0,1.713,0.767,1.713,1.7c0,0.946-0.767,1.713-1.713,1.713
		C184.821,42.413,184.056,41.646,184.056,40.7z M184.461,40.7c0,0.722,0.593,1.301,1.301,1.301c0.722,0,1.308-0.579,1.308-1.301
		c0-0.708-0.586-1.288-1.308-1.288C185.054,39.412,184.461,39.992,184.461,40.7z"/>
	<path fill="#F7F2F2" d="M188.685,39.265c0.006,0.019,0.02,0.077,0.02,0.135c0.16-0.251,0.463-0.399,0.779-0.399
		c0.193,0,0.393,0.032,0.586,0.104c0.083,0.032,0.141,0.097,0.141,0.206c0,0.154-0.147,0.238-0.283,0.193
		c-0.135-0.046-0.296-0.078-0.443-0.078c-0.367,0-0.754,0.193-0.754,0.6v1.905c0,0.245-0.122,0.451-0.36,0.451
		c-0.116,0-0.22-0.084-0.22-0.206c0-0.077,0.046-0.154,0.123-0.187c0,0,0.045-0.02,0.045-0.084v-2.396
		c0-0.064-0.045-0.084-0.045-0.084c-0.077-0.032-0.123-0.109-0.123-0.187c0-0.122,0.104-0.206,0.22-0.206
		C188.523,39.032,188.633,39.129,188.685,39.265z"/>
	<path fill="#F7F2F2" d="M191.048,40.913c0.084,0.566,0.547,1.088,1.152,1.088c0.451,0,0.773-0.136,0.985-0.348
		c0.045-0.045,0.103-0.064,0.161-0.064c0.103,0,0.206,0.084,0.206,0.193c0,0.058-0.02,0.109-0.058,0.147
		c-0.291,0.31-0.709,0.483-1.295,0.483c-0.928,0-1.571-0.799-1.571-1.713c0-0.876,0.644-1.7,1.571-1.7
		c0.934,0,1.584,0.818,1.584,1.7c0,0.122-0.109,0.213-0.219,0.213H191.048z M193.366,40.501c-0.078-0.573-0.561-1.089-1.166-1.089
		c-0.592,0-1.088,0.516-1.152,1.089H193.366z"/>
</g>
<g>
</g>
<g>
</g>
<g>
</g>
<g>
</g>
<g>
</g>
<g>
</g>
<g>
</g>
<g>
</g>
<g>
</g>
<g>
</g>
<g>
</g>
<g>
</g>
<g>
</g>
<g>
</g>
<g>
</g>
</svg>
