<?xml version="1.0" encoding="utf-8"?>
<!-- Generator: Adobe Illustrator 16.0.4, SVG Export Plug-In . SVG Version: 6.00 Build 0)  -->
<!DOCTYPE svg PUBLIC "-//W3C//DTD SVG 1.1//EN" "http://www.w3.org/Graphics/SVG/1.1/DTD/svg11.dtd">
<svg version="1.1" id="Layer_2" xmlns="http://www.w3.org/2000/svg" xmlns:xlink="http://www.w3.org/1999/xlink" x="0px" y="0px"
	 width="50px" height="75.493px" viewBox="0 0 50 75.493" enable-background="new 0 0 50 75.493" xml:space="preserve">
<path fill="#FFFFFF" d="M3.875,38.266c0,0-8.812-38.098,21.188-38.265S48,38.493,48,38.493h-4c0,0,4.25-33-19-32.25
	S8,37.584,8.5,38.039S3.875,38.266,3.875,38.266z"/>
<path fill="#FFFFFF" d="M47.165,34.493H2.835C1.27,34.493,0,35.762,0,37.327v35.331c0,1.565,1.27,2.834,2.835,2.834h44.33
	c1.565,0,2.835-1.269,2.835-2.834V37.327C50,35.762,48.73,34.493,47.165,34.493z M31.078,67.493H25h-6l2.961-12.406
	c0,0-3.039-1.156-3.039-4.531c0-3.343,1.153-5.888,6.098-5.933c-0.047,0-0.089-0.129-0.137-0.129h0.273
	c-0.048,0-0.09,0.066-0.137,0.067c4.944,0.045,6.117,2.496,6.117,5.839c0,3.375-3.029,4.672-3.029,4.672L31.078,67.493z"/>
</svg>
