<?xml version="1.0" encoding="utf-8"?>
<!-- Generator: Adobe Illustrator 16.0.4, SVG Export Plug-In . SVG Version: 6.00 Build 0)  -->
<!DOCTYPE svg PUBLIC "-//W3C//DTD SVG 1.1//EN" "http://www.w3.org/Graphics/SVG/1.1/DTD/svg11.dtd">
<svg version="1.1" id="Layer_1" xmlns="http://www.w3.org/2000/svg" xmlns:xlink="http://www.w3.org/1999/xlink" x="0px" y="0px"
	 width="39.68px" height="38.232px" viewBox="0 0 39.68 38.232" enable-background="new 0 0 39.68 38.232" xml:space="preserve">
<g id="Search">
	<g>
		<g>
			<g>
				<path fill="#823A35" d="M39.387,34.073c0.419-0.463,0.384-1.186-0.079-1.605L25.9,20.311c-0.462-0.419-1.183-0.384-1.602,0.079
					l-3.428,3.788c-0.419,0.463-0.384,1.185,0.079,1.605l13.409,12.156c0.462,0.42,1.183,0.385,1.602-0.078L39.387,34.073z"/>
			</g>
		</g>
	</g>
	<g>
		<path fill="#823A35" d="M12.568,0c5.207,0,10.075,3.262,11.873,8.459c2.27,6.557-1.208,13.713-7.765,15.981
			c-1.36,0.471-2.747,0.695-4.109,0.695c-5.207,0-10.075-3.262-11.873-8.459C-1.575,10.119,1.902,2.963,8.459,0.694
			C9.82,0.223,11.206,0,12.568,0 M12.568,3.406c-1.016,0-2.023,0.17-2.994,0.506l-0.001,0C7.261,4.712,5.4,6.365,4.33,8.565
			c-1.068,2.2-1.217,4.685-0.417,6.996c1.276,3.689,4.754,6.168,8.654,6.168c1.016,0,2.023-0.171,2.995-0.507
			c2.312-0.8,4.174-2.452,5.244-4.653c1.069-2.2,1.217-4.685,0.417-6.997C19.947,5.884,16.468,3.406,12.568,3.406L12.568,3.406z"/>
	</g>
</g>
<g>
</g>
<g>
</g>
<g>
</g>
<g>
</g>
<g>
</g>
<g>
</g>
<g>
</g>
<g>
</g>
<g>
</g>
<g>
</g>
<g>
</g>
<g>
</g>
<g>
</g>
<g>
</g>
<g>
</g>
</svg>
